<svg width="1024" height="1024" viewBox="0 0 1024 1024" fill="none" xmlns="http://www.w3.org/2000/svg">
<rect width="1024" height="1024" fill="#1E1E1E"/>
<rect width="1024" height="1024" fill="#F0F4F8"/>
<rect x="228" y="312" width="568" height="400" rx="20" fill="black"/>
<path d="M718.677 645.301C725.926 650.882 721.742 661.883 712.593 661.828C579.185 661.037 445.453 660.384 312.069 661.214C302.838 661.271 298.668 650.102 306.045 644.552C333.233 624.095 363.074 608.394 395.57 596.79C396.088 596.612 395.797 595.654 395.861 595.638C399.193 594.469 406.261 592.214 410.24 591.029C513.909 559.962 632.99 579.324 718.677 645.301Z" fill="#98A73D"/>
<path d="M410.24 547.753C410.24 547.758 410.237 547.761 410.232 547.762C405.624 547.826 400.468 547.826 395.861 547.761C381.45 547.55 359.744 549.952 349.862 538.235C337.659 523.748 344.21 503.985 359.052 496.969C364.999 494.159 370.088 487.987 370.279 481.413C371.499 439.569 435.335 439.618 436.868 481.443C437.109 488.004 442.213 494.136 448.176 496.883C462.492 503.481 469.499 521.775 459.102 536.498C449.222 550.502 425.872 547.519 410.248 547.745C410.244 547.745 410.24 547.749 410.24 547.753Z" fill="#A8C33D"/>
<path d="M403.051 547.81C407.005 547.81 410.24 550.997 410.24 554.951V585.807C410.24 588.905 408.241 591.623 405.286 592.553C400.682 594.002 395.861 590.586 395.861 585.76V554.951C395.861 550.997 399.096 547.81 403.051 547.81Z" fill="#6D4427"/>
<path d="M745.985 656.59C745.993 659.561 743.57 661.975 740.599 661.981C739.262 661.984 737.981 661.48 736.989 660.583C653.888 585.451 531.405 559.669 423.185 587.431C416.698 589.095 410.24 584.29 410.24 577.593V557.617C410.24 552.151 414.628 547.766 420.093 547.845C434.457 548.053 451.144 547.794 459.102 536.514C469.501 521.788 462.49 503.502 448.169 496.903C442.208 494.156 437.109 488.025 436.872 481.466C435.355 439.638 371.511 439.583 370.28 481.419C370.086 487.997 364.991 494.171 359.043 496.985C344.215 504 337.663 523.757 349.862 538.251C357.66 547.512 372.862 547.953 386.009 547.835C391.475 547.786 395.861 552.167 395.861 557.632V594.507C395.861 595.269 396.292 596.267 395.693 596.74C395.658 596.768 395.617 596.79 395.57 596.807C355.304 611.185 319.097 631.855 286.995 660.069C286.012 660.933 284.819 661.406 283.515 661.523C280.52 661.793 278 659.541 278 656.533V372.792C278 367.296 282.435 362.829 287.931 362.794C436.928 361.836 586.208 362.357 735.147 362.024C740.668 362.011 745.156 366.475 745.171 371.996L745.985 656.59Z" fill="#B9E3EE"/>
<path d="M607.161 416.807C662.832 410.185 668.526 492.825 616.93 496.996C565.334 501.167 559.172 422.503 607.161 416.807Z" fill="#F9C639"/>
<path d="M656.605 409.309C667.167 408.026 652.06 425.408 647.984 424.305C640.56 422.211 655.441 409.438 656.605 409.309Z" fill="#F8C433"/>
<path d="M549.653 453.72C549.658 453.725 549.664 453.727 549.671 453.725C551.821 453.031 565.368 453.197 566.046 455.741C567.874 462.622 548.335 460.642 547.64 458.045C547.253 456.621 548.297 454.18 549.634 453.716C549.641 453.714 549.648 453.715 549.653 453.72Z" fill="#F8C536"/>
<path d="M662.339 453.728C662.344 453.728 662.349 453.728 662.354 453.726C664.255 453.096 678.021 453.373 678.732 455.173C681.659 462.573 661.069 461.08 660.325 457.477C660.116 456.474 661.482 454.035 662.323 453.731C662.329 453.729 662.334 453.728 662.339 453.728Z" fill="#F8C539"/>
<path d="M568.634 409.309C571.06 409.016 585.18 422.487 578.403 424.304C575.136 425.181 560.207 410.347 568.634 409.309Z" fill="#F8C333"/>
<path d="M576.106 489.498C577.449 489.141 579.875 489.563 580.425 490.942C581.751 494.302 568.488 508.632 566.046 502.481C565.059 499.998 574.667 489.887 576.106 489.498Z" fill="#F7C435"/>
<path d="M611.754 504.494C618.298 501.867 618.909 522.081 613.16 522.611C612.213 522.698 611.345 522.064 611.014 521.173C609.492 517.071 609.892 505.236 611.754 504.494Z" fill="#F8C536"/>
<path d="M647.984 489.498C650.815 488.735 665.323 502.043 658.336 503.926C655.505 504.689 640.997 491.381 647.984 489.498Z" fill="#F7C432"/>
<path d="M612.903 390.84C617.933 390.483 616.801 408.643 614.051 409.309C608.293 410.688 609.166 391.115 612.903 390.84Z" fill="#F9C333"/>
<path d="M6.23864 513.369V473.739C41.821 473.739 66.6435 466.281 80.706 451.367C94.9815 436.452 102.119 411.523 102.119 376.58V274.307C102.119 244.903 104.889 219.442 110.429 197.922C116.182 176.402 125.45 158.611 138.234 144.548C151.018 130.486 168.064 120.045 189.371 113.227C210.678 106.409 236.991 103 268.312 103V165.642C243.597 165.642 224.101 169.477 209.825 177.148C195.763 184.818 185.749 196.75 179.783 212.943C174.03 228.923 171.153 249.378 171.153 274.307V402.148C171.153 418.767 168.916 433.895 164.442 447.531C160.18 461.168 152.19 472.886 140.472 482.688C128.753 492.489 112.027 500.053 90.294 505.379C68.7741 510.706 40.7557 513.369 6.23864 513.369ZM268.312 921.182C236.991 921.182 210.678 917.773 189.371 910.955C168.064 904.136 151.018 893.696 138.234 879.634C125.45 865.571 116.182 847.78 110.429 826.26C104.889 804.74 102.119 779.278 102.119 749.875V647.602C102.119 612.659 94.9815 587.73 80.706 572.815C66.6435 557.901 41.821 550.443 6.23864 550.443V510.812C40.7557 510.812 68.7741 513.476 90.294 518.803C112.027 524.129 128.753 531.693 140.472 541.494C152.19 551.295 160.18 563.014 164.442 576.651C168.916 590.287 171.153 605.415 171.153 622.034V749.875C171.153 774.804 174.03 795.259 179.783 811.239C185.749 827.219 195.763 839.044 209.825 846.715C224.101 854.598 243.597 858.54 268.312 858.54V921.182ZM6.23864 550.443V473.739H81.6648V550.443H6.23864Z" fill="black"/>
<path d="M1016.76 513.369V473.739C981.179 473.739 956.357 466.281 942.294 451.367C928.018 436.452 920.881 411.523 920.881 376.58V274.307C920.881 244.903 918.111 219.442 912.571 197.922C906.818 176.402 897.55 158.611 884.766 144.548C871.982 130.486 854.936 120.045 833.629 113.227C812.322 106.409 786.009 103 754.688 103V165.642C779.403 165.642 798.899 169.477 813.175 177.148C827.237 184.818 837.251 196.75 843.217 212.943C848.97 228.923 851.847 249.378 851.847 274.307V402.148C851.847 418.767 854.084 433.895 858.558 447.531C862.82 461.168 870.81 472.886 882.528 482.688C894.247 492.489 910.973 500.053 932.706 505.379C954.226 510.706 982.244 513.369 1016.76 513.369ZM754.688 921.182C786.009 921.182 812.322 917.773 833.629 910.955C854.936 904.136 871.982 893.696 884.766 879.634C897.55 865.571 906.818 847.78 912.571 826.26C918.111 804.74 920.881 779.278 920.881 749.875V647.602C920.881 612.659 928.018 587.73 942.294 572.815C956.357 557.901 981.179 550.443 1016.76 550.443V510.812C982.244 510.812 954.226 513.476 932.706 518.803C910.973 524.129 894.247 531.693 882.528 541.494C870.81 551.295 862.82 563.014 858.558 576.651C854.084 590.287 851.847 605.415 851.847 622.034V749.875C851.847 774.804 848.97 795.259 843.217 811.239C837.251 827.219 827.237 839.044 813.175 846.715C798.899 854.598 779.403 858.54 754.688 858.54V921.182ZM1016.76 550.443V473.739H941.335V550.443H1016.76Z" fill="black"/>
</svg>
