<?xml version="1.0" encoding="UTF-8"?>
<svg xmlns="http://www.w3.org/2000/svg" viewBox="0 0 1024 1024">
  <defs>
    <style>
      .cls-1 {
        fill: #f8c333;
      }

      .cls-2 {
        fill: #f9c639;
      }

      .cls-3 {
        fill: #f9c333;
      }

      .cls-4 {
        fill: #f7c435;
      }

      .cls-5 {
        fill: #1e1e1e;
      }

      .cls-6 {
        fill: #f8c536;
      }

      .cls-7 {
        fill: #606060;
      }

      .cls-8 {
        fill: #b9e3ee;
      }

      .cls-9 {
        fill: #f0f4f8;
      }

      .cls-10 {
        fill: #fff;
      }

      .cls-11 {
        fill: #f8c433;
      }

      .cls-12 {
        fill: #a8c33d;
      }

      .cls-13 {
        fill: #6d4427;
      }

      .cls-14 {
        fill: #f8c539;
      }

      .cls-15 {
        fill: #f7c432;
      }

      .cls-16 {
        fill: #98a73d;
      }
    </style>
  </defs>
  <g id="Background">
    <rect class="cls-10" width="1024" height="1024"/>
    <g>
      <rect class="cls-5" x="-.6" y="0" width="1024" height="1024"/>
      <rect class="cls-9" x="-.6" y="0" width="1024" height="1024"/>
      <rect x="227.4" y="312" width="568" height="400" rx="20" ry="20"/>
      <path class="cls-16" d="M718.08,645.3c7.25,5.58,3.07,16.58-6.08,16.53-133.41-.79-267.14-1.44-400.52-.61-9.23.06-13.4-11.11-6.02-16.66,27.19-20.46,57.03-36.16,89.52-47.76.52-.18.23-1.14.29-1.15,3.33-1.17,10.4-3.42,14.38-4.61,103.67-31.07,222.75-11.71,308.44,54.27Z"/>
      <path class="cls-12" d="M409.64,547.75s0,0,0,0c-4.61.06-9.76.06-14.37,0-14.41-.21-36.12,2.19-46-9.53-12.2-14.49-5.65-34.25,9.19-41.27,5.95-2.81,11.04-8.98,11.23-15.56,1.22-41.84,65.06-41.79,66.59.03.24,6.56,5.35,12.69,11.31,15.44,14.32,6.6,21.32,24.89,10.93,39.61-9.88,14-33.23,11.02-48.85,11.25,0,0,0,0,0,0Z"/>
      <path class="cls-13" d="M402.45,547.81c3.95,0,7.19,3.19,7.19,7.14v30.86c0,3.1-2,5.82-4.95,6.75-4.6,1.45-9.43-1.97-9.43-6.79v-30.81c0-3.95,3.24-7.14,7.19-7.14Z"/>
      <path class="cls-8" d="M745.39,656.59c0,2.97-2.41,5.38-5.39,5.39-1.34,0-2.62-.5-3.61-1.4-83.1-75.13-205.58-100.91-313.8-73.15-6.49,1.66-12.95-3.14-12.95-9.84v-19.98c0-5.47,4.39-9.85,9.85-9.77,14.36.21,31.05-.05,39.01-11.33,10.4-14.73,3.39-33.01-10.93-39.61-5.96-2.75-11.06-8.88-11.3-15.44-1.52-41.83-65.36-41.88-66.59-.05-.19,6.58-5.29,12.75-11.24,15.57-14.83,7.02-21.38,26.77-9.18,41.27,7.8,9.26,23,9.7,36.15,9.58,5.47-.05,9.85,4.33,9.85,9.8v36.88c0,.76.43,1.76-.17,2.23-.04.03-.08.05-.12.07-40.27,14.38-76.47,35.05-108.58,63.26-.98.86-2.18,1.34-3.48,1.45-3,.27-5.52-1.98-5.52-4.99v-283.74c0-5.5,4.43-9.96,9.93-10,149-.96,298.28-.44,447.22-.77,5.52-.01,10.01,4.45,10.02,9.97l.81,284.59Z"/>
      <path class="cls-2" d="M606.56,416.81c55.67-6.62,61.36,76.02,9.77,80.19s-57.76-74.49-9.77-80.19Z"/>
      <path class="cls-11" d="M656.01,409.31c10.56-1.28-4.54,16.1-8.62,15-7.42-2.09,7.46-14.87,8.62-15Z"/>
      <path class="cls-6" d="M549.06,453.72s.01,0,.02,0c2.15-.69,15.7-.53,16.38,2.02,1.83,6.88-17.71,4.9-18.41,2.3-.39-1.42.66-3.87,1.99-4.33,0,0,.01,0,.02,0Z"/>
      <path class="cls-14" d="M661.74,453.73s.01,0,.02,0c1.9-.63,15.67-.35,16.38,1.45,2.93,7.4-17.66,5.91-18.41,2.3-.21-1,1.16-3.44,2-3.75,0,0,.01,0,.02,0Z"/>
      <path class="cls-1" d="M568.04,409.31c2.43-.29,16.55,13.18,9.77,14.99-3.27.88-18.2-13.96-9.77-14.99Z"/>
      <path class="cls-4" d="M575.51,489.5c1.34-.36,3.77.07,4.32,1.44,1.33,3.36-11.94,17.69-14.38,11.54-.99-2.48,8.62-12.59,10.06-12.98Z"/>
      <path class="cls-6" d="M611.16,504.49c6.54-2.63,7.15,17.59,1.41,18.12-.95.09-1.82-.55-2.15-1.44-1.52-4.1-1.12-15.94.74-16.68Z"/>
      <path class="cls-15" d="M647.39,489.5c2.83-.76,17.34,12.55,10.35,14.43-2.83.76-17.34-12.54-10.35-14.43Z"/>
      <path class="cls-3" d="M612.31,390.84c5.03-.36,3.9,17.8,1.15,18.47-5.76,1.38-4.89-18.19-1.15-18.47Z"/>
      <path d="M5.64,513.37v-39.63c35.58,0,60.4-7.46,74.47-22.37,14.28-14.92,21.41-39.84,21.41-74.79v-102.27c0-29.4,2.77-54.87,8.31-76.39,5.75-21.52,15.02-39.31,27.8-53.37,12.78-14.06,29.83-24.5,51.14-31.32,21.31-6.82,47.62-10.23,78.94-10.23v62.64c-24.72,0-44.21,3.84-58.49,11.51-14.06,7.67-24.08,19.6-30.04,35.79-5.75,15.98-8.63,36.44-8.63,61.36v127.84c0,16.62-2.24,31.75-6.71,45.38-4.26,13.64-12.25,25.35-23.97,35.16-11.72,9.8-28.44,17.37-50.18,22.69-21.52,5.33-49.54,7.99-84.06,7.99ZM267.71,921.18c-31.32,0-57.63-3.41-78.94-10.23-21.31-6.82-38.35-17.26-51.14-31.32-12.78-14.06-22.05-31.85-27.8-53.37-5.54-21.52-8.31-46.98-8.31-76.39v-102.27c0-34.94-7.14-59.87-21.41-74.79-14.06-14.91-38.89-22.37-74.47-22.37v-39.63c34.52,0,62.54,2.66,84.06,7.99,21.73,5.33,38.46,12.89,50.18,22.69,11.72,9.8,19.71,21.52,23.97,35.16,4.47,13.64,6.71,28.76,6.71,45.38v127.84c0,24.93,2.88,45.38,8.63,61.36,5.97,15.98,15.98,27.8,30.04,35.48,14.28,7.88,33.77,11.82,58.49,11.82v62.64ZM5.64,550.44v-76.7h75.43v76.7H5.64Z"/>
      <path d="M1016.16,513.37v-39.63c-35.58,0-60.4-7.46-74.47-22.37-14.28-14.92-21.41-39.84-21.41-74.79v-102.27c0-29.4-2.77-54.87-8.31-76.39-5.75-21.52-15.02-39.31-27.8-53.37-12.78-14.06-29.83-24.5-51.14-31.32-21.31-6.82-47.62-10.23-78.94-10.23v62.64c24.72,0,44.21,3.84,58.49,11.51,14.06,7.67,24.08,19.6,30.04,35.79,5.75,15.98,8.63,36.44,8.63,61.36v127.84c0,16.62,2.24,31.75,6.71,45.38,4.26,13.64,12.25,25.35,23.97,35.16,11.72,9.8,28.45,17.37,50.18,22.69,21.52,5.33,49.54,7.99,84.05,7.99ZM754.09,921.18c31.32,0,57.63-3.41,78.94-10.23,21.31-6.82,38.35-17.26,51.14-31.32,12.78-14.06,22.05-31.85,27.8-53.37,5.54-21.52,8.31-46.98,8.31-76.39v-102.27c0-34.94,7.14-59.87,21.41-74.79,14.06-14.91,38.89-22.37,74.47-22.37v-39.63c-34.52,0-62.53,2.66-84.05,7.99-21.73,5.33-38.46,12.89-50.18,22.69-11.72,9.8-19.71,21.52-23.97,35.16-4.47,13.64-6.71,28.76-6.71,45.38v127.84c0,24.93-2.88,45.38-8.63,61.36-5.97,15.98-15.98,27.8-30.04,35.48-14.28,7.88-33.77,11.82-58.49,11.82v62.64ZM1016.16,550.44v-76.7h-75.42v76.7h75.42Z"/>
    </g>
  </g>
  <g id="App_Icon_Shape" data-name="App Icon Shape">
    <path class="cls-7" d="M0,0v1024h1024V0H0ZM1024,651c0,14.24,0,28.48-.08,42.73-.07,12-.21,23.99-.53,35.98-.71,26.13-2.25,52.49-6.89,78.34-4.71,26.22-12.4,50.62-24.53,74.44-11.92,23.41-27.49,44.84-46.07,63.41s-40,34.15-63.41,46.07c-23.82,12.12-48.22,19.82-74.44,24.53-25.84,4.65-52.2,6.18-78.34,6.89-11.99.33-23.99.46-35.98.53-14.24.09-28.48.08-42.73.08h-278c-14.24,0-28.48,0-42.73-.08-12-.07-23.99-.21-35.98-.53-26.13-.71-52.49-2.25-78.34-6.89-26.22-4.71-50.62-12.4-74.44-24.53-23.41-11.92-44.84-27.49-63.41-46.07s-34.15-40-46.07-63.41c-12.12-23.82-19.82-48.22-24.53-74.44-4.65-25.84-6.18-52.2-6.89-78.34-.33-11.99-.46-23.99-.53-35.98C0,679.48,0,665.24,0,651v-278C0,358.76,0,344.52.08,330.27c.07-12,.21-23.99.53-35.98.71-26.13,2.25-52.49,6.89-78.34,4.71-26.22,12.4-50.62,24.53-74.44,11.92-23.41,27.49-44.84,46.07-63.41s40-34.15,63.41-46.07c23.82-12.12,48.22-19.82,74.44-24.53,25.84-4.65,52.2-6.18,78.34-6.89,11.99-.33,23.99-.46,35.98-.53C344.52,0,358.76,0,373,0h278c14.24,0,28.48,0,42.73.08,12,.07,23.99.21,35.98.53,26.13.71,52.49,2.25,78.34,6.89,26.22,4.71,50.62,12.4,74.44,24.53,23.41,11.92,44.84,27.49,63.41,46.07s34.15,40,46.07,63.41c12.12,23.82,19.82,48.22,24.53,74.44,4.65,25.84,6.18,52.2,6.89,78.34.33,11.99.46,23.99.53,35.98.09,14.24.08,28.48.08,42.73v278Z"/>
  </g>
</svg>